<svg width="102" height="102" viewBox="0 0 102 102" fill="none" xmlns="http://www.w3.org/2000/svg">
<circle cx="51" cy="51" r="50.5" fill="white" stroke="black"/>
<g clip-path="url(#clip0_39_304)">
<path d="M51.1248 55.2109C45.7293 60.6298 40.6003 65.782 35.4714 70.931C35.1981 71.2076 34.9315 71.4908 34.6449 71.7508C33.1086 73.1505 31.3323 73.2205 30.0559 71.9308C28.7828 70.6444 28.8194 68.8281 30.2858 67.3517C35.2881 62.3061 40.3171 57.2871 45.3527 52.2748C45.7426 51.8849 46.2492 51.6116 46.8757 51.1584C43.0132 47.3358 39.4306 43.7899 35.8513 40.2406C34.0384 38.441 32.2221 36.6447 30.4358 34.8218C28.8761 33.2288 28.7361 31.4625 30.0159 30.1194C31.3356 28.733 33.2085 28.8297 34.8415 30.4527C40.1904 35.7749 45.516 41.1238 50.9482 46.556C51.3881 46.1561 51.7947 45.8195 52.1679 45.4462C57.1169 40.5039 62.0626 35.5583 66.9982 30.6026C67.9847 29.6095 69.0511 28.8663 70.5275 29.2496C72.9003 29.8661 73.6168 32.6355 71.8372 34.5352C70.0143 36.4781 68.0947 38.3277 66.205 40.204C62.6258 43.7632 59.0399 47.3158 55.3006 51.0284C58.9565 54.641 62.5058 58.1436 66.0451 61.6529C67.898 63.4892 69.7543 65.3221 71.5773 67.1884C73.1369 68.7847 73.2703 70.5544 71.9905 71.8941C70.6675 73.2805 68.8012 73.1805 67.1682 71.5575C62.2092 66.6252 57.2702 61.6729 52.3346 56.7206C51.9447 56.3307 51.6381 55.8574 51.1282 55.2142L51.1248 55.2109Z" fill="black"/>
</g>
<defs>
<clipPath id="clip0_39_304">
<rect width="43.7143" height="43.7143" fill="white" transform="translate(29.1428 29.1427)"/>
</clipPath>
</defs>
</svg>
