<svg width="180" height="253" viewBox="0 0 180 253" fill="none" xmlns="http://www.w3.org/2000/svg">
<path d="M78.778 252L1 251.848L28.2063 133.774L64.4329 135.345L78.778 252Z" fill="#F497A2" stroke="black" stroke-miterlimit="10"/>
<path d="M179 252L101.212 251.848L109.767 135.756L140.106 127.473L179 252Z" fill="#F497A2" stroke="black" stroke-miterlimit="10"/>
<path d="M64.4329 135.756L66.6734 100.947C66.6734 100.947 75.7422 94.7437 75.5773 82.025C75.4124 69.3063 77.5947 55.6594 79.6122 50.6969C81.6296 45.7344 84.6073 41.5662 84.7139 35.0329C84.8109 28.4995 85.936 13.0318 85.936 13.0318C85.936 13.0318 72.3862 -12.584 51.2226 16.8876C51.2226 16.8876 45.3448 24.4831 43.3274 40.7719C41.31 57.0607 41.6494 69.2349 41.6494 69.2349C41.6494 69.2349 37.2848 79.8561 37.2848 84.9704C37.2848 90.0846 28.2354 134.176 28.2354 134.176L64.4523 135.756H64.4329Z" fill="#E84225" stroke="black" stroke-miterlimit="10"/>
<mask id="mask0_6_77" style="mask-type:luminance" maskUnits="userSpaceOnUse" x="28" y="2" width="58" height="134">
<path d="M28.8428 133.702L63.9654 135.234L66.1744 100.915L66.1901 100.672L66.3908 100.534L66.3908 100.534L66.3911 100.534L66.3912 100.534L66.3946 100.532L66.4108 100.52C66.4258 100.51 66.4491 100.493 66.4801 100.47C66.5421 100.425 66.6348 100.356 66.754 100.262C66.9923 100.075 67.3358 99.7915 67.7492 99.411C68.5762 98.6496 69.6806 97.5021 70.7805 95.9645C72.9787 92.8916 75.1581 88.2631 75.0773 82.0315C74.9945 75.6436 75.501 69.0269 76.2811 63.3839C77.0594 57.7537 78.1158 53.0501 79.149 50.5086C79.6595 49.2528 80.23 48.0492 80.7936 46.8604L80.7965 46.8544C81.361 45.6637 81.9185 44.4877 82.4165 43.2653C83.4111 40.8241 84.1619 38.2115 84.214 35.0251C84.214 35.0249 84.214 35.0248 84.214 35.0247L84.7139 35.0329C84.8109 28.4995 85.936 13.0318 85.936 13.0318L28.8428 133.702ZM28.8428 133.702C28.9084 133.381 29 132.932 29.1142 132.371C29.3617 131.155 29.7153 129.413 30.1395 127.306C30.9881 123.091 32.1195 117.419 33.2509 111.586C34.3823 105.754 35.5142 99.7597 36.3633 94.9024C36.7879 92.4741 37.1423 90.327 37.3907 88.6253C37.6372 86.9368 37.7848 85.6522 37.7848 84.9704C37.7848 82.5052 38.848 78.6444 39.9417 75.342C40.4844 73.7034 41.0274 72.2231 41.4348 71.1522C41.6384 70.6169 41.808 70.1843 41.9266 69.8859C41.9858 69.7367 42.0323 69.6211 42.0639 69.5429L42.0999 69.4543L42.109 69.4321L42.1112 69.4266L42.1118 69.4253L42.1119 69.425L41.6494 69.2349L42.1119 69.425L42.1522 69.3269L42.1492 69.221L42.1492 69.2206L42.1492 69.2192L42.149 69.2129L42.1484 69.1872L42.146 69.0835C42.144 68.9915 42.1414 68.8539 42.1387 68.6727C42.1334 68.3103 42.1281 67.7735 42.1279 67.0781C42.1276 65.6872 42.1481 63.662 42.2316 61.1282C42.3985 56.0602 42.8171 48.9598 43.8236 40.8333C44.8261 32.739 46.7864 26.8147 48.4896 22.9218C49.3413 20.9752 50.1289 19.5359 50.7009 18.587C50.9868 18.1125 51.2189 17.7605 51.3781 17.529C51.4577 17.4133 51.519 17.3276 51.5598 17.2718C51.5802 17.2439 51.5954 17.2234 51.6052 17.2104L51.6158 17.1964L51.618 17.1936L51.618 17.1936L51.6182 17.1933L51.6182 17.1932L51.6235 17.1865L51.6287 17.1792C56.8896 9.85305 61.6373 6.00848 65.7648 4.31432C69.8731 2.62808 73.4076 3.05501 76.3102 4.36365C79.2299 5.68005 81.5272 7.89807 83.1025 9.80797C83.8879 10.7602 84.4882 11.6289 84.8915 12.2584C85.093 12.573 85.245 12.8273 85.3459 13.0018C85.378 13.0572 85.405 13.1046 85.4267 13.1433" fill="white" stroke="white"/>
</mask>
<g mask="url(#mask0_6_77)">
<path d="M48.4195 27.1607C51.8639 27.1607 54.6561 24.5912 54.6561 21.4216C54.6561 18.2521 51.8639 15.6826 48.4195 15.6826C44.9751 15.6826 42.1829 18.2521 42.1829 21.4216C42.1829 24.5912 44.9751 27.1607 48.4195 27.1607Z" fill="#E9B020" stroke="black" stroke-width="0.25" stroke-miterlimit="10"/>
<path d="M66.0236 12.639C69.4679 12.639 72.2601 10.0696 72.2601 6.90003C72.2601 3.73046 69.4679 1.16101 66.0236 1.16101C62.5792 1.16101 59.787 3.73046 59.787 6.90003C59.787 10.0696 62.5792 12.639 66.0236 12.639Z" fill="#E9B020" stroke="black" stroke-width="0.25" stroke-miterlimit="10"/>
<path d="M80.9604 18.3782C84.4047 18.3782 87.1969 15.8087 87.1969 12.6392C87.1969 9.46959 84.4047 6.90015 80.9604 6.90015C77.516 6.90015 74.7238 9.46959 74.7238 12.6392C74.7238 15.8087 77.516 18.3782 80.9604 18.3782Z" fill="#E9B020" stroke="black" stroke-width="0.25" stroke-miterlimit="10"/>
<path d="M64.0643 50.5361C67.5087 50.5361 70.3009 47.9667 70.3009 44.7971C70.3009 41.6276 67.5087 39.0581 64.0643 39.0581C60.6199 39.0581 57.8277 41.6276 57.8277 44.7971C57.8277 47.9667 60.6199 50.5361 64.0643 50.5361Z" fill="#E9B020" stroke="black" stroke-width="0.25" stroke-miterlimit="10"/>
<path d="M81.4647 38.0407C84.9091 38.0407 87.7013 35.4712 87.7013 32.3016C87.7013 29.1321 84.9091 26.5626 81.4647 26.5626C78.0203 26.5626 75.2281 29.1321 75.2281 32.3016C75.2281 35.4712 78.0203 38.0407 81.4647 38.0407Z" fill="#E9B020" stroke="black" stroke-width="0.25" stroke-miterlimit="10"/>
<path d="M64.9469 32.3016C68.3913 32.3016 71.1835 29.7322 71.1835 26.5626C71.1835 23.3931 68.3913 20.8236 64.9469 20.8236C61.5026 20.8236 58.7103 23.3931 58.7103 26.5626C58.7103 29.7322 61.5026 32.3016 64.9469 32.3016Z" fill="#E9B020" stroke="black" stroke-width="0.25" stroke-miterlimit="10"/>
<path d="M45.597 44.7971C49.0414 44.7971 51.8336 42.2277 51.8336 39.0581C51.8336 35.8885 49.0414 33.3191 45.597 33.3191C42.1526 33.3191 39.3604 35.8885 39.3604 39.0581C39.3604 42.2277 42.1526 44.7971 45.597 44.7971Z" fill="#E9B020" stroke="black" stroke-width="0.25" stroke-miterlimit="10"/>
<path d="M80.9604 56.2753C84.4047 56.2753 87.1969 53.7058 87.1969 50.5363C87.1969 47.3667 84.4047 44.7972 80.9604 44.7972C77.516 44.7972 74.7238 47.3667 74.7238 50.5363C74.7238 53.7058 77.516 56.2753 80.9604 56.2753Z" fill="#E9B020" stroke="black" stroke-width="0.25" stroke-miterlimit="10"/>
<path d="M52.4641 66.9679C55.9084 66.9679 58.7006 64.3985 58.7006 61.2289C58.7006 58.0593 55.9084 55.4899 52.4641 55.4899C49.0197 55.4899 46.2275 58.0593 46.2275 61.2289C46.2275 64.3985 49.0197 66.9679 52.4641 66.9679Z" fill="#E9B020" stroke="black" stroke-width="0.25" stroke-miterlimit="10"/>
<path d="M53.5504 87.8444C56.9947 87.8444 59.787 85.2749 59.787 82.1054C59.787 78.9358 56.9947 76.3663 53.5504 76.3663C50.106 76.3663 47.3138 78.9358 47.3138 82.1054C47.3138 85.2749 50.106 87.8444 53.5504 87.8444Z" fill="#E9B020" stroke="black" stroke-width="0.25" stroke-miterlimit="10"/>
<path d="M36.6931 82.855C40.1375 82.855 42.9297 80.2855 42.9297 77.116C42.9297 73.9464 40.1375 71.377 36.6931 71.377C33.2487 71.377 30.4565 73.9464 30.4565 77.116C30.4565 80.2855 33.2487 82.855 36.6931 82.855Z" fill="#E9B020" stroke="black" stroke-width="0.25" stroke-miterlimit="10"/>
<path d="M37.5273 101.473C40.9716 101.473 43.7639 98.904 43.7639 95.7344C43.7639 92.5648 40.9716 89.9954 37.5273 89.9954C34.0829 89.9954 31.2907 92.5648 31.2907 95.7344C31.2907 98.904 34.0829 101.473 37.5273 101.473Z" fill="#E9B020" stroke="black" stroke-width="0.25" stroke-miterlimit="10"/>
<path d="M53.5504 105.767C56.9947 105.767 59.787 103.197 59.787 100.028C59.787 96.858 56.9947 94.2886 53.5504 94.2886C50.106 94.2886 47.3138 96.858 47.3138 100.028C47.3138 103.197 50.106 105.767 53.5504 105.767Z" fill="#E9B020" stroke="black" stroke-width="0.25" stroke-miterlimit="10"/>
<path d="M54.6561 123.742C58.1005 123.742 60.8927 121.173 60.8927 118.003C60.8927 114.834 58.1005 112.264 54.6561 112.264C51.2117 112.264 48.4195 114.834 48.4195 118.003C48.4195 121.173 51.2117 123.742 54.6561 123.742Z" fill="#E9B020" stroke="black" stroke-width="0.25" stroke-miterlimit="10"/>
<path d="M35.9463 119.288C39.3907 119.288 42.1829 116.719 42.1829 113.549C42.1829 110.38 39.3907 107.81 35.9463 107.81C32.5019 107.81 29.7097 110.38 29.7097 113.549C29.7097 116.719 32.5019 119.288 35.9463 119.288Z" fill="#E9B020" stroke="black" stroke-width="0.25" stroke-miterlimit="10"/>
<path d="M34.4429 137.112C37.8873 137.112 40.6795 134.543 40.6795 131.373C40.6795 128.204 37.8873 125.634 34.4429 125.634C30.9985 125.634 28.2063 128.204 28.2063 131.373C28.2063 134.543 30.9985 137.112 34.4429 137.112Z" fill="#E9B020" stroke="black" stroke-width="0.25" stroke-miterlimit="10"/>
<path d="M53.5504 141.718C56.9947 141.718 59.787 139.148 59.787 135.979C59.787 132.809 56.9947 130.24 53.5504 130.24C50.106 130.24 47.3138 132.809 47.3138 135.979C47.3138 139.148 50.106 141.718 53.5504 141.718Z" fill="#E9B020" stroke="black" stroke-width="0.25" stroke-miterlimit="10"/>
<path d="M68.2447 71.377C71.689 71.377 74.4813 68.8075 74.4813 65.6379C74.4813 62.4684 71.689 59.8989 68.2447 59.8989C64.8003 59.8989 62.0081 62.4684 62.0081 65.6379C62.0081 68.8075 64.8003 71.377 68.2447 71.377Z" fill="#E9B020" stroke="black" stroke-width="0.25" stroke-miterlimit="10"/>
<path d="M70.3009 91.486C73.7453 91.486 76.5375 88.9165 76.5375 85.747C76.5375 82.5774 73.7453 80.0079 70.3009 80.0079C66.8565 80.0079 64.0643 82.5774 64.0643 85.747C64.0643 88.9165 66.8565 91.486 70.3009 91.486Z" fill="#E9B020" stroke="black" stroke-width="0.25" stroke-miterlimit="10"/>
<path d="M36.6931 61.2288C40.1375 61.2288 42.9297 58.6593 42.9297 55.4897C42.9297 52.3202 40.1375 49.7507 36.6931 49.7507C33.2487 49.7507 30.4565 52.3202 30.4565 55.4897C30.4565 58.6593 33.2487 61.2288 36.6931 61.2288Z" fill="#E9B020" stroke="black" stroke-width="0.25" stroke-miterlimit="10"/>
</g>
<path d="M64.4329 135.756L66.6734 100.947C66.6734 100.947 75.7422 94.7437 75.5773 82.025C75.4124 69.3063 77.5947 55.6594 79.6122 50.6969C81.6296 45.7344 84.6073 41.5662 84.7139 35.0329C84.8109 28.4995 85.936 13.0318 85.936 13.0318C85.936 13.0318 72.3862 -12.584 51.2226 16.8876C51.2226 16.8876 45.3448 24.4831 43.3274 40.7719C41.31 57.0607 41.6494 69.2349 41.6494 69.2349C41.6494 69.2349 37.2848 79.8561 37.2848 84.9704C37.2848 90.0846 28.2354 134.176 28.2354 134.176L64.4523 135.756H64.4329Z" stroke="black" stroke-miterlimit="10"/>
<path d="M109.767 135.756L107.808 96.5466C107.808 96.5466 99.7962 92.1018 98.6711 82.2571C97.546 72.4124 95.48 54.2849 90.417 44.7794C85.354 35.2828 84.4132 32.1768 84.7915 21.1182C85.1698 10.0686 89.4859 3.84761 93.8021 1.94651C98.1182 0.0454004 105.441 1.42883 106.372 1.94651C107.303 2.46418 120.446 8.33708 122.696 20.422C124.946 32.507 130.581 75.1614 131.513 77.7587C132.444 80.356 135.266 87.1571 135.683 97.216C136.1 107.275 140.116 127.464 140.116 127.464L109.777 135.747L109.767 135.756Z" fill="#E84225" stroke="black" stroke-miterlimit="10"/>
<mask id="mask1_6_77" style="mask-type:luminance" maskUnits="userSpaceOnUse" x="84" y="0" width="57" height="136">
<path d="M139.536 127.104L110.235 135.103L108.307 96.5216L108.293 96.2442L108.051 96.1096L108.051 96.1095L108.05 96.1094L108.048 96.1078L108.033 96.0998C108.02 96.0923 108 96.0804 107.973 96.0642C107.918 96.0318 107.836 95.982 107.73 95.9145C107.518 95.7796 107.21 95.5743 106.836 95.2968C106.088 94.7415 105.077 93.8992 104.03 92.756C101.938 90.47 99.7154 86.9917 99.1678 82.2003L99.1624 82.1527C98.6003 77.2344 97.8018 70.2476 96.5124 63.2998C95.221 56.3417 93.4281 49.369 90.8583 44.5443L90.8582 44.5442C88.3272 39.7966 86.8538 36.6946 86.0494 33.4154C85.2457 30.1391 85.1024 26.6549 85.2912 21.1353C85.6662 10.182 89.9364 4.19556 94.0036 2.40409C96.048 1.50363 98.8579 1.36691 101.322 1.53826C102.544 1.62327 103.661 1.78258 104.526 1.9515C104.959 2.036 105.325 2.12212 105.607 2.20127C105.902 2.28413 106.068 2.3496 106.129 2.38351C106.194 2.41943 106.308 2.47702 106.466 2.55662C107.527 3.09087 110.556 4.61631 113.721 7.23198C117.358 10.2373 121.109 14.6322 122.204 20.5136C123.3 26.3972 125.202 39.5565 126.973 51.8098L127.104 52.7198C128.007 58.9686 128.87 64.9237 129.564 69.4789C129.912 71.7563 130.218 73.6865 130.466 75.1298C130.59 75.8511 130.7 76.4539 130.795 76.919C130.887 77.3721 130.97 77.7258 131.042 77.9274C131.122 78.1504 131.216 78.4038 131.32 78.687C132.436 81.7077 134.806 88.1186 135.184 97.2367C135.394 102.301 136.507 109.891 137.563 116.195C138.091 119.351 138.607 122.192 138.99 124.244C139.182 125.27 139.341 126.099 139.452 126.672C139.474 126.786 139.494 126.89 139.512 126.984C139.52 127.026 139.528 127.066 139.536 127.104Z" fill="white" stroke="white"/>
</mask>
<g mask="url(#mask1_6_77)">
<path d="M121.037 24.3938C124.482 24.3938 127.274 21.8244 127.274 18.6548C127.274 15.4852 124.482 12.9158 121.037 12.9158C117.593 12.9158 114.801 15.4852 114.801 18.6548C114.801 21.8244 117.593 24.3938 121.037 24.3938Z" fill="#E9B020" stroke="black" stroke-width="0.25" stroke-miterlimit="10"/>
<path d="M103.443 9.87232C106.887 9.87232 109.68 7.30288 109.68 4.13331C109.68 0.963734 106.887 -1.60571 103.443 -1.60571C99.9987 -1.60571 97.2065 0.963734 97.2065 4.13331C97.2065 7.30288 99.9987 9.87232 103.443 9.87232Z" fill="#E9B020" stroke="black" stroke-width="0.25" stroke-miterlimit="10"/>
<path d="M88.5063 15.6112C91.9507 15.6112 94.7429 13.0418 94.7429 9.8722C94.7429 6.70262 91.9507 4.13318 88.5063 4.13318C85.0619 4.13318 82.2697 6.70262 82.2697 9.8722C82.2697 13.0418 85.0619 15.6112 88.5063 15.6112Z" fill="#E9B020" stroke="black" stroke-width="0.25" stroke-miterlimit="10"/>
<path d="M105.393 47.7693C108.837 47.7693 111.629 45.1998 111.629 42.0303C111.629 38.8607 108.837 36.2913 105.393 36.2913C101.948 36.2913 99.156 38.8607 99.156 42.0303C99.156 45.1998 101.948 47.7693 105.393 47.7693Z" fill="#E9B020" stroke="black" stroke-width="0.25" stroke-miterlimit="10"/>
<path d="M87.9922 35.2739C91.4366 35.2739 94.2288 32.7045 94.2288 29.5349C94.2288 26.3653 91.4366 23.7959 87.9922 23.7959C84.5479 23.7959 81.7556 26.3653 81.7556 29.5349C81.7556 32.7045 84.5479 35.2739 87.9922 35.2739Z" fill="#E9B020" stroke="black" stroke-width="0.25" stroke-miterlimit="10"/>
<path d="M104.52 29.5349C107.964 29.5349 110.756 26.9655 110.756 23.7959C110.756 20.6263 107.964 18.0569 104.52 18.0569C101.075 18.0569 98.2831 20.6263 98.2831 23.7959C98.2831 26.9655 101.075 29.5349 104.52 29.5349Z" fill="#E9B020" stroke="black" stroke-width="0.25" stroke-miterlimit="10"/>
<path d="M123.87 42.0305C127.314 42.0305 130.106 39.4611 130.106 36.2915C130.106 33.1219 127.314 30.5525 123.87 30.5525C120.425 30.5525 117.633 33.1219 117.633 36.2915C117.633 39.4611 120.425 42.0305 123.87 42.0305Z" fill="#E9B020" stroke="black" stroke-width="0.25" stroke-miterlimit="10"/>
<path d="M88.5063 53.5083C91.9507 53.5083 94.7429 50.9389 94.7429 47.7693C94.7429 44.5997 91.9507 42.0303 88.5063 42.0303C85.0619 42.0303 82.2697 44.5997 82.2697 47.7693C82.2697 50.9389 85.0619 53.5083 88.5063 53.5083Z" fill="#E9B020" stroke="black" stroke-width="0.25" stroke-miterlimit="10"/>
<path d="M116.993 64.2011C120.437 64.2011 123.229 61.6316 123.229 58.462C123.229 55.2925 120.437 52.723 116.993 52.723C113.549 52.723 110.756 55.2925 110.756 58.462C110.756 61.6316 113.549 64.2011 116.993 64.2011Z" fill="#E9B020" stroke="black" stroke-width="0.25" stroke-miterlimit="10"/>
<path d="M115.916 85.0774C119.361 85.0774 122.153 82.508 122.153 79.3384C122.153 76.1688 119.361 73.5994 115.916 73.5994C112.472 73.5994 109.68 76.1688 109.68 79.3384C109.68 82.508 112.472 85.0774 115.916 85.0774Z" fill="#E9B020" stroke="black" stroke-width="0.25" stroke-miterlimit="10"/>
<path d="M132.774 80.0883C136.218 80.0883 139.01 77.5188 139.01 74.3492C139.01 71.1797 136.218 68.6102 132.774 68.6102C129.329 68.6102 126.537 71.1797 126.537 74.3492C126.537 77.5188 129.329 80.0883 132.774 80.0883Z" fill="#E9B020" stroke="black" stroke-width="0.25" stroke-miterlimit="10"/>
<path d="M131.939 98.7064C135.384 98.7064 138.176 96.137 138.176 92.9674C138.176 89.7978 135.384 87.2284 131.939 87.2284C128.495 87.2284 125.703 89.7978 125.703 92.9674C125.703 96.137 128.495 98.7064 131.939 98.7064Z" fill="#E9B020" stroke="black" stroke-width="0.25" stroke-miterlimit="10"/>
<path d="M115.916 103.009C119.361 103.009 122.153 100.439 122.153 97.2695C122.153 94.1 119.361 91.5305 115.916 91.5305C112.472 91.5305 109.68 94.1 109.68 97.2695C109.68 100.439 112.472 103.009 115.916 103.009Z" fill="#E9B020" stroke="black" stroke-width="0.25" stroke-miterlimit="10"/>
<path d="M114.801 120.975C118.245 120.975 121.037 118.406 121.037 115.236C121.037 112.067 118.245 109.497 114.801 109.497C111.356 109.497 108.564 112.067 108.564 115.236C108.564 118.406 111.356 120.975 114.801 120.975Z" fill="#E9B020" stroke="black" stroke-width="0.25" stroke-miterlimit="10"/>
<path d="M133.511 116.522C136.955 116.522 139.747 113.952 139.747 110.783C139.747 107.613 136.955 105.044 133.511 105.044C130.066 105.044 127.274 107.613 127.274 110.783C127.274 113.952 130.066 116.522 133.511 116.522Z" fill="#E9B020" stroke="black" stroke-width="0.25" stroke-miterlimit="10"/>
<path d="M135.014 134.346C138.458 134.346 141.251 131.776 141.251 128.607C141.251 125.437 138.458 122.868 135.014 122.868C131.57 122.868 128.777 125.437 128.777 128.607C128.777 131.776 131.57 134.346 135.014 134.346Z" fill="#E9B020" stroke="black" stroke-width="0.25" stroke-miterlimit="10"/>
<path d="M115.916 138.951C119.361 138.951 122.153 136.382 122.153 133.212C122.153 130.043 119.361 127.473 115.916 127.473C112.472 127.473 109.68 130.043 109.68 133.212C109.68 136.382 112.472 138.951 115.916 138.951Z" fill="#E9B020" stroke="black" stroke-width="0.25" stroke-miterlimit="10"/>
<path d="M101.212 68.6101C104.657 68.6101 107.449 66.0407 107.449 62.8711C107.449 59.7015 104.657 57.1321 101.212 57.1321C97.7679 57.1321 94.9757 59.7015 94.9757 62.8711C94.9757 66.0407 97.7679 68.6101 101.212 68.6101Z" fill="#E9B020" stroke="black" stroke-width="0.25" stroke-miterlimit="10"/>
<path d="M99.156 88.719C102.6 88.719 105.393 86.1496 105.393 82.98C105.393 79.8104 102.6 77.241 99.156 77.241C95.7117 77.241 92.9194 79.8104 92.9194 82.98C92.9194 86.1496 95.7117 88.719 99.156 88.719Z" fill="#E9B020" stroke="black" stroke-width="0.25" stroke-miterlimit="10"/>
<path d="M132.774 58.462C136.218 58.462 139.01 55.8926 139.01 52.723C139.01 49.5535 136.218 46.984 132.774 46.984C129.329 46.984 126.537 49.5535 126.537 52.723C126.537 55.8926 129.329 58.462 132.774 58.462Z" fill="#E9B020" stroke="black" stroke-width="0.25" stroke-miterlimit="10"/>
</g>
<path d="M109.767 135.756L107.808 96.5466C107.808 96.5466 99.7962 92.1018 98.6711 82.2571C97.546 72.4124 95.48 54.2849 90.417 44.7794C85.354 35.2828 84.4132 32.1768 84.7915 21.1182C85.1698 10.0686 89.4859 3.84761 93.8021 1.94651C98.1182 0.0454004 105.441 1.42883 106.372 1.94651C107.303 2.46418 120.446 8.33708 122.696 20.422C124.946 32.507 130.581 75.1614 131.513 77.7587C132.444 80.356 135.266 87.1571 135.683 97.216C136.1 107.275 140.116 127.464 140.116 127.464L109.777 135.747L109.767 135.756Z" stroke="black" stroke-miterlimit="10"/>
</svg>
