<svg width="102" height="102" viewBox="0 0 102 102" fill="none" xmlns="http://www.w3.org/2000/svg">
<circle cx="51" cy="51" r="50.5" fill="white" stroke="black"/>
<g clip-path="url(#clip0_51_426)">
<path d="M24.7442 48.3685C25.8391 48.2887 26.7264 48.9589 27.5634 49.7663C30.7854 52.8779 34.0168 55.9798 37.2419 59.085C38.4376 60.2371 39.6616 61.3604 40.8132 62.5572C41.3386 63.1061 41.6407 63.004 42.1253 62.5189C49.7082 54.9682 57.3038 47.4367 64.9025 39.9019C68.178 36.6531 71.4629 33.4203 74.7353 30.1716C75.805 29.1088 77.0448 28.7227 78.4701 29.1982C79.8168 29.6482 80.6632 30.6279 80.9306 32.0449C81.195 33.4395 80.6947 34.5884 79.7098 35.5617C76.0914 39.136 72.4792 42.7167 68.8639 46.2973C62.722 52.3768 56.5738 58.4563 50.4351 64.5422C48.415 66.5463 46.4139 68.5696 44.397 70.5802C42.5374 72.4375 40.6338 72.4822 38.7397 70.6664C33.1861 65.3432 27.6452 60.0041 22.1074 54.665C21.0282 53.6246 20.7104 51.9907 21.2768 50.6312C21.8368 49.2876 23.1804 48.3749 24.7442 48.3717V48.3685Z" fill="black"/>
</g>
<defs>
<clipPath id="clip0_51_426">
<rect width="60" height="43" fill="white" transform="translate(21 29)"/>
</clipPath>
</defs>
</svg>
