<svg width="21" height="22" viewBox="0 0 21 22" fill="none" xmlns="http://www.w3.org/2000/svg">
<circle cx="10.5" cy="11" r="10" fill="white" stroke="black"/>
<g clip-path="url(#clip0_30_1278)">
<path d="M10.5257 11.8671C9.41484 12.9827 8.35889 14.0435 7.30293 15.1036C7.24667 15.1605 7.19178 15.2188 7.13277 15.2724C6.81646 15.5605 6.45075 15.5749 6.18796 15.3094C5.92586 15.0446 5.93341 14.6706 6.23531 14.3667C7.26519 13.3279 8.30057 12.2945 9.33731 11.2626C9.41759 11.1823 9.52188 11.1261 9.65087 11.0327C8.85565 10.2457 8.11805 9.5157 7.38115 8.78497C7.00789 8.41446 6.63395 8.04463 6.26618 7.66932C5.94507 7.34134 5.91626 6.97769 6.17973 6.70118C6.45144 6.41575 6.83705 6.43565 7.17325 6.7698C8.27449 7.86555 9.37093 8.96679 10.4893 10.0852C10.5799 10.0029 10.6636 9.93355 10.7405 9.85671C11.7594 8.83917 12.7776 7.82095 13.7937 6.80067C13.9968 6.5962 14.2164 6.4432 14.5204 6.5221C15.0089 6.64904 15.1564 7.21921 14.79 7.61031C14.4147 8.01032 14.0195 8.39113 13.6304 8.77742C12.8935 9.51021 12.1553 10.2416 11.3854 11.006C12.1381 11.7497 12.8688 12.4709 13.5975 13.1934C13.979 13.5714 14.3612 13.9488 14.7365 14.333C15.0576 14.6617 15.085 15.026 14.8216 15.3019C14.5492 15.5873 14.1649 15.5667 13.8287 15.2326C12.8078 14.2171 11.7909 13.1975 10.7748 12.1779C10.6945 12.0976 10.6314 12.0002 10.5264 11.8678L10.5257 11.8671Z" fill="black"/>
</g>
<defs>
<clipPath id="clip0_30_1278">
<rect width="9" height="9" fill="white" transform="translate(6 6.5)"/>
</clipPath>
</defs>
</svg>
