<svg width="103" height="23" viewBox="0 0 103 23" fill="none" xmlns="http://www.w3.org/2000/svg">
<path d="M72.0956 22.5847C72.0889 22.4653 72.0805 22.3791 72.0805 22.2912C72.0805 17.818 72.0772 13.3449 72.0822 8.87172C72.0822 7.64272 72.3252 6.45353 72.8198 5.32571C73.7769 3.13806 75.3895 1.5956 77.5989 0.660167C78.5124 0.273721 79.4729 0.0564495 80.4636 0.0100097C81.6689 -0.04804 82.8389 0.147671 83.9721 0.56397C85.0449 0.95705 86.0105 1.52096 86.8369 2.31044C86.9727 2.44146 87.0967 2.5841 87.2208 2.72674C87.2794 2.79308 87.323 2.87269 87.3901 2.96889C87.5124 2.85611 87.5862 2.79474 87.6516 2.72674C88.9272 1.39159 90.4811 0.547384 92.2949 0.177525C93.3023 -0.0281372 94.3199 -0.04804 95.3407 0.111182C97.0673 0.379869 98.5827 1.08973 99.8851 2.23249C100.916 3.1364 101.685 4.23271 102.202 5.4982C102.653 6.60446 102.877 7.75384 102.876 8.94967C102.872 13.3963 102.876 17.8429 102.876 22.2895C102.876 22.3757 102.866 22.4636 102.859 22.5648C102.448 22.5748 102.066 22.5267 101.696 22.4155C99.9522 21.8881 98.9229 20.7072 98.5223 18.9724C98.462 18.7136 98.4569 18.44 98.4553 18.1729C98.4502 15.0781 98.4569 11.9815 98.4502 8.88664C98.4486 7.88819 98.182 6.96105 97.5786 6.14504C96.8712 5.18639 95.9106 4.63243 94.7289 4.45662C93.4096 4.26257 92.2379 4.60921 91.2254 5.46005C90.4895 6.07704 90.0604 6.8831 89.8374 7.8036C89.7235 8.27629 89.6849 8.75562 89.6849 9.23992C89.6849 13.5439 89.6849 17.8462 89.6849 22.1502C89.6849 22.5698 89.6849 22.5814 89.2742 22.5499C88.4629 22.4852 87.7253 22.2082 87.0732 21.7272C86.1496 21.0456 85.5847 20.1317 85.3467 19.0221C85.288 18.7534 85.2696 18.4731 85.2679 18.1978C85.2629 15.1029 85.2679 12.0064 85.2629 8.91152C85.2612 7.90312 84.9963 6.96603 84.3878 6.14338C83.6804 5.18473 82.7216 4.62911 81.5381 4.45662C80.229 4.26588 79.0639 4.60589 78.0565 5.44512C77.3055 6.07206 76.8613 6.88807 76.6417 7.8318C76.5344 8.29619 76.4975 8.76888 76.4959 9.24158C76.4925 12.2121 76.464 15.1826 76.5059 18.153C76.5311 19.9244 75.2487 22.0938 72.8583 22.5018C72.6119 22.5433 72.3621 22.5582 72.0889 22.5897L72.0956 22.5847Z" fill="white"/>
<path d="M58.0365 22.9247C54.8884 22.8882 52.151 21.8268 49.878 19.6657C48.0709 17.9457 46.9646 15.8377 46.5288 13.3946C46.4114 12.7345 46.3427 12.0645 46.3578 11.3944C46.4131 8.71416 47.2529 6.30592 48.9795 4.22443C50.6223 2.24576 52.7176 0.957056 55.2237 0.326802C55.978 0.137725 56.7491 0.0547973 57.5286 0.0166503C59.2753 -0.069595 60.9499 0.227288 62.5541 0.897348C64.9277 1.88917 66.7767 3.48471 68.0976 5.67899C68.8184 6.87647 69.2911 8.16352 69.5258 9.53183C69.6766 10.4125 69.7236 11.3032 69.6632 12.2021C69.5459 13.9453 69.0614 15.574 68.1914 17.0899C67.1689 18.8695 65.7608 20.281 63.9789 21.3242C62.7217 22.059 61.374 22.5482 59.9273 22.7688C59.3021 22.865 58.6752 22.9446 58.0382 22.9247H58.0365ZM58.0298 4.39692C54.29 4.37038 50.8418 7.3077 50.8435 11.4707C50.8452 15.3882 53.9849 18.5246 58.0247 18.5295C62.0948 18.5345 65.2395 15.3517 65.2244 11.4342C65.2077 7.31765 61.7813 4.37038 58.0281 4.39692H58.0298Z" fill="white"/>
<path d="M32.8336 22.9478C28.5775 22.7986 25.2517 21.0604 22.92 17.5558C22.0399 16.2323 21.4968 14.7678 21.2789 13.1955C21.1984 12.6133 21.1247 12.0229 21.1314 11.4357C21.1498 9.83854 21.4499 8.2911 22.1254 6.83157C23.4732 3.91747 25.6657 1.88739 28.6847 0.731371C29.7458 0.325023 30.8488 0.102775 31.9837 0.031457C34.8149 -0.146009 37.3947 0.55888 39.6862 2.2191C42.1403 3.99708 43.6657 6.37546 44.2541 9.33268C44.4117 10.1238 44.4854 10.9266 44.4603 11.7326C44.3949 13.7362 43.8702 15.6137 42.8175 17.3336C41.6005 19.3239 39.9243 20.8182 37.8021 21.82C36.7024 22.3391 35.5475 22.6825 34.3338 22.8185C33.8226 22.8749 33.3096 22.9097 32.8336 22.9511V22.9478ZM25.6154 11.4639C25.6188 15.3516 28.7903 18.5759 32.8788 18.5278C37.026 18.4797 40.1304 15.1476 39.9947 11.2102C39.8589 7.30592 36.5214 4.17123 32.3793 4.40343C28.5154 4.6207 25.6104 7.76202 25.6154 11.4639Z" fill="white"/>
<path d="M0 0.348267H0.566586C5.92904 0.348267 11.2932 0.348267 16.6556 0.351584C16.9523 0.351584 17.2541 0.366511 17.5441 0.417926C19.0577 0.688272 20.035 1.99854 20.0451 3.40334C20.0501 4.27243 19.7534 5.00385 19.1281 5.61918C16.7562 7.95278 14.391 10.293 12.0207 12.6283C10.2338 14.3897 8.44012 16.1444 6.64984 17.9042C6.58279 17.9705 6.52412 18.0435 6.4621 18.1131L6.48557 18.1728C6.58782 18.1778 6.69175 18.1878 6.794 18.1878C7.91544 18.1878 9.03688 18.1878 10.1583 18.1878C12.4733 18.1878 14.7882 18.1845 17.1032 18.1878C19.1533 18.1911 21.1363 19.6971 21.4565 21.9096C21.4867 22.1202 21.537 22.3292 21.4783 22.5714C21.366 22.578 21.252 22.5929 21.138 22.5929C18.8767 22.5929 16.6154 22.5929 14.3557 22.5929C10.7299 22.5929 7.10244 22.5962 3.47663 22.5896C2.87651 22.5896 2.28981 22.5 1.73999 22.2363C0.918607 21.8433 0.375489 21.2147 0.130751 20.3489C-0.132427 19.4201 0.00167629 18.5411 0.559881 17.7416C0.672192 17.5807 0.811324 17.4364 0.952133 17.2988C4.20916 14.0944 7.46955 10.8918 10.7283 7.68907C11.6335 6.80008 12.5353 5.90943 13.4388 5.01878C13.5075 4.95078 13.5696 4.8778 13.6584 4.78327C13.5779 4.75507 13.5327 4.72853 13.4858 4.72356C13.3952 4.71526 13.3047 4.72024 13.2142 4.72024C10.2924 4.72024 7.37232 4.70531 4.45055 4.72522C2.64686 4.74014 0.477743 3.47466 0.0687279 1.03491C0.0318495 0.81764 0.0251444 0.597051 0 0.348267Z" fill="white"/>
</svg>
